Dawn of the Dragonslayer (2011) 1080p mkv AC3+DTS Eng nl subs
.
[IMG]http://img832.imageshack.us/img832/5436/pdotds2011.jpg[/IMG]
.
Verenigde Staten
Actie / Fantasy

geregisseerd door Anne K. Black
met Nicola Posener, Philip Brodie en Ian Cullen

Will en zijn vader leven een eenvoudig en pastoraal bestaan in de bergen. Ze trekken zich niks aan van de affaires binnen de naburige laaglanden. Als Wills vader onverwacht wordt gedood door een draak besluit hij van de bergen af te dalen om daar hulp te vragen van een mysterieus familielid genaamd Sterling, die ooit een rijke landeigenaar en ridder was. Zijn komst valt echter niet in goede aarde en Will wordt aan het werk gezet op een boerderij. Hij raakt bevriend met Sterlings eigenzinnige dochter Kate, en de twee besluiten samen te werken om de geheimen van hun familie boven water te halen. Will wil zich ondertussen klaar maken voor het gevecht en de afrekening met de draak die zijn vader doodde.

Vanaf 7 februari te huur
Vanaf 23 februari te koop op DVD
. 
http://www.moviemeter.nl/film/76256
.
PLOT
. 
http://www.imdb.com/title/tt1734582/
.
Source: japshon
Subs: English, Dutch
Nederlandse Retail - subs van de Retail PAL DVD
.
Format                           : Matroska
Format version                   : Version 2
File size                        : 8.10 GiB
Duration                         : 1h 41mn
Overall bit rate                 : 11.4 Mbps
Encoded date                     : UTC 2012-01-29 22:05:29
Writing application              : mkvmerge v5.2.0 ('I can't explain') built on Dec 18 2011 18:12:03
Writing library                  : libebml v1.2.3 + libmatroska v1.3.0

Video
ID                               : 1
Format                           : AVC
Format/Info                      : Advanced Video Codec
Format profile                   : High@L4.1
Format settings, CABAC           : Yes
Format settings, ReFrames        : 4 frames
Codec ID                         : V_MPEG4/ISO/AVC
Duration                         : 1h 41mn
Bit rate                         : 9 248 Kbps
Width                            : 1 920 pixels
Height                           : 1 080 pixels
Display aspect ratio             : 16:9
Frame rate                       : 23.976 fps
Color space                      : YUV
Chroma subsampling               : 4:2:0
Bit depth                        : 8 bits
Scan type                        : Progressive
Bits/(Pixel*Frame)               : 0.186
Stream size                      : 6.41 GiB (79%)
Writing library                  : x264 core 120 r2145 748fe16
Encoding settings                : cabac=1 / ref=4 / deblock=1:-1:-1 / analyse=0x3:0x113 / me=umh / subme=7 / psy=1 / psy_rd=1.00:0.00 / mixed_ref=1 / me_range=16 / chroma_me=1 / trellis=1 / 8x8dct=1 / cqm=0 / deadzone=21,11 / fast_pskip=1 / chroma_qp_offset=-2 / threads=12 / sliced_threads=0 / nr=0 / decimate=1 / interlaced=0 / bluray_compat=0 / constrained_intra=0 / bframes=3 / b_pyramid=2 / b_adapt=2 / b_bias=0 / direct=3 / weightb=1 / open_gop=0 / weightp=2 / keyint=250 / keyint_min=23 / scenecut=40 / intra_refresh=0 / rc_lookahead=40 / rc=2pass / mbtree=1 / bitrate=9248 / ratetol=1.0 / qcomp=0.60 / qpmin=0 / qpmax=69 / qpstep=4 / cplxblur=20.0 / qblur=0.5 / vbv_maxrate=50000 / vbv_bufsize=50000 / nal_hrd=none / ip_ratio=1.40 / aq=1:1.00
Language                         : English
Default                          : Yes
Forced                           : Yes

Audio #1
ID                               : 2
Format                           : DTS
Format/Info                      : Digital Theater Systems
Codec ID                         : A_DTS
Duration                         : 1h 41mn
Bit rate mode                    : Constant
Bit rate                         : 1 510 Kbps
Channel(s)                       : 6 channels
Channel positions                : Front: L C R, Side: L R, LFE
Sampling rate                    : 48.0 KHz
Bit depth                        : 16 bits
Compression mode                 : Lossy
Stream size                      : 1.07 GiB (13%)
Title                            : DTS
Language                         : English
Default                          : Yes
Forced                           : Yes

Audio #2
ID                               : 3
Format                           : AC-3
Format/Info                      : Audio Coding 3
Mode extension                   : CM (complete main)
Codec ID                         : A_AC3
Duration                         : 1h 41mn
Bit rate mode                    : Constant
Bit rate                         : 640 Kbps
Channel(s)                       : 6 channels
Channel positions                : Front: L C R, Side: L R, LFE
Sampling rate                    : 48.0 KHz
Bit depth                        : 16 bits
Compression mode                 : Lossy
Stream size                      : 466 MiB (6%)
Title                            : AC3
Language                         : English
Default                          : No
Forced                           : No

Text #1
ID                               : 4
Format                           : UTF-8
Codec ID                         : S_TEXT/UTF8
Codec ID/Info                    : UTF-8 Plain Text
Title                            : Retail Subs
Language                         : Dutch
Default                          : Yes
Forced                           : No

Text #2
ID                               : 5
Format                           : UTF-8
Codec ID                         : S_TEXT/UTF8
Codec ID/Info                    : UTF-8 Plain Text
Language                         : English
Default                          : No
Forced                           : No


.
Enjoy
